# xmcd
#
# Track frame offsets: 
#        150
#        22029
#        32677
#        46176
#        64455
#        84256
#        101823
#        116196
#        131522
#        151804
#        166167
#
# Disc length: 2435 seconds
#
# Revision: 0
# Processed by: cddbd v1.5.2PL0 Copyright (c) Steve Scherf et al.
# Submitted via: ExactAudioCopy v1.0b1
#
DISCID=8a09810b
DTITLE=Matt Rae - High Strung
DYEAR=2008
DGENRE=Country
TTITLE0=Bad Truck
TTITLE1=Peanut Butter and Tele
TTITLE2=Happy Ending
TTITLE3=I Only Have Eyes For You
TTITLE4=After Hours
TTITLE5=Lizzie Strut
TTITLE6=Small Brown Dog
TTITLE7=Weedwacker
TTITLE8=Pink Beach
TTITLE9=Goose Pickin'
TTITLE10=Tube Job
EXTD=
EXTT0=
EXTT1=
EXTT2=
EXTT3=
EXTT4=
EXTT5=
EXTT6=
EXTT7=
EXTT8=
EXTT9=
EXTT10=
PLAYORDER=
